<?xml version="1.0" standalone="no"?>
<!DOCTYPE svg PUBLIC "-//W3C//DTD SVG 20010904//EN"
 "http://www.w3.org/TR/2001/REC-SVG-20010904/DTD/svg10.dtd">
<svg version="1.0" xmlns="http://www.w3.org/2000/svg"
 width="300.000000pt" height="450.000000pt" viewBox="0 0 300.000000 450.000000"
 preserveAspectRatio="xMidYMid meet">
<metadata>
Created by potrace 1.10, written by Peter Selinger 2001-2011
</metadata>
<g transform="translate(0.000000,450.000000) scale(0.100000,-0.100000)"
fill="#000000" stroke="none">
<path d="M1355 3866 c-90 -22 -113 -47 -134 -144 -9 -42 -8 -45 20 -60 26 -15
28 -21 22 -55 -3 -23 -1 -48 7 -62 11 -20 10 -54 -4 -192 -30 -285 -30 -291
-12 -269 9 11 16 15 16 9 0 -7 -5 -15 -10 -18 -6 -3 -7 -18 -4 -33 l6 -27 -20
24 -20 25 -98 -23 c-55 -12 -109 -25 -121 -28 -17 -4 -23 -1 -23 12 0 9 -14
30 -30 47 -41 41 -71 35 -186 -34 -49 -30 -118 -70 -154 -90 -254 -136 -332
-184 -346 -210 -28 -54 -24 -65 108 -306 16 -29 60 -111 97 -182 l68 -129 -31
-15 c-127 -60 -143 -250 -29 -343 l45 -37 -6 -66 c-9 -85 -28 -140 -77 -221
-33 -56 -39 -73 -39 -123 0 -52 3 -61 33 -91 46 -46 100 -59 222 -52 104 7
192 27 283 67 42 18 51 26 47 41 -4 11 -2 19 5 19 6 0 8 -4 5 -10 -3 -5 -1
-10 5 -10 7 0 9 8 5 19 -3 11 2 28 14 42 l19 23 6 -32 c8 -36 -1 -75 -15 -67
-12 8 -11 -97 1 -149 26 -116 155 -172 415 -183 275 -12 469 42 511 143 l13
32 108 -40 c152 -57 171 -56 324 23 93 48 128 72 141 95 16 27 19 62 23 240
l4 209 162 219 c89 121 169 233 177 249 16 32 11 87 -12 121 -8 12 -67 60
-132 107 -220 156 -207 150 -258 124 -15 -8 -30 -15 -31 -15 -5 0 11 58 45
165 18 55 37 117 42 138 6 20 15 37 20 37 14 0 1 -69 -18 -98 -8 -13 -12 -31
-9 -42 3 -10 -1 -44 -9 -74 -8 -31 -10 -54 -6 -51 5 3 12 20 16 38 3 17 11 43
16 57 5 14 9 25 8 25 0 0 9 27 20 59 28 81 26 115 -9 164 -25 33 -40 43 -88
57 -32 8 -85 24 -118 35 -210 66 -275 73 -306 30 -18 -24 -128 -379 -133 -430
-2 -14 -4 -31 -4 -38 -1 -7 -7 -10 -14 -6 -7 4 -8 3 -4 -5 4 -7 7 -83 7 -169
-1 -90 2 -151 7 -144 7 10 13 7 25 -12 22 -33 22 -38 -8 -70 -36 -39 -32 -75
10 -106 19 -14 35 -30 35 -37 0 -14 68 -35 83 -26 14 8 1 -13 -38 -62 -46 -58
-85 -133 -85 -164 0 -24 -21 -51 -91 -115 -16 -15 -27 -129 -30 -319 -2 -92
15 -125 72 -140 19 -5 35 -10 37 -12 2 -1 -7 -21 -19 -45 -17 -33 -34 -48 -81
-70 -33 -16 -79 -32 -101 -35 -23 -3 -58 -8 -77 -10 -139 -19 -396 -5 -465 24
-11 5 -31 13 -45 19 -32 12 -90 60 -90 74 0 6 10 3 22 -8 21 -19 21 -19 14 0
-5 14 -3 16 6 9 21 -16 93 -33 138 -33 50 0 50 6 0 15 -67 11 -160 47 -170 65
-6 10 -10 93 -10 184 l0 165 33 -14 c19 -8 85 -21 148 -31 145 -21 433 -16
489 9 l35 16 -35 -3 c-19 -2 -27 -1 -17 1 9 2 17 9 17 14 0 6 5 7 12 3 8 -5 9
-2 5 10 -4 10 -1 19 8 23 13 5 15 46 15 304 -1 165 2 304 6 311 5 7 3 8 -6 3
-8 -5 -18 -2 -26 9 -6 10 -25 21 -41 27 -26 8 -26 9 7 4 23 -4 31 -2 24 5 -6
6 -107 11 -260 14 -186 2 -268 7 -324 20 -41 9 -79 21 -83 25 -5 5 -7 65 -5
133 4 115 6 127 35 183 18 33 52 85 77 115 54 64 77 109 82 159 2 20 18 182
35 361 17 179 32 326 33 327 0 1 24 -3 51 -8 49 -9 210 -11 201 -2 -3 3 -31 6
-63 7 -77 4 -83 5 -83 14 0 4 30 7 66 7 36 0 71 3 77 7 7 4 -31 8 -83 8 -97 0
-165 11 -182 28 -5 5 -6 20 -3 34 6 24 6 24 133 24 123 -1 186 4 177 13 -8 8
42 29 69 29 21 0 26 -5 27 -27 2 -42 -2 -75 -12 -92 -15 -30 -9 -111 26 -302
3 -19 1 -26 -6 -21 -8 4 -8 0 0 -14 6 -11 15 -58 20 -104 5 -52 9 -67 10 -41
1 44 -24 348 -35 415 -4 25 0 44 11 61 11 18 14 36 9 66 -4 23 -3 41 3 41 5 0
17 6 27 13 16 12 17 19 6 75 -17 83 -52 115 -142 131 -82 14 -219 13 -283 -3z
m320 -57 c30 -14 47 -41 59 -90 5 -22 2 -28 -15 -32 -15 -4 -23 0 -26 14 -7
27 -32 24 -43 -6 -13 -34 -67 -36 -72 -2 -2 12 -10 22 -18 22 -8 0 -16 -10
-18 -22 -3 -19 -10 -23 -37 -23 -27 0 -34 5 -39 26 -8 32 -40 29 -44 -4 -3
-19 -9 -23 -35 -20 -24 2 -32 8 -32 23 0 24 -33 33 -41 11 -8 -20 -44 -21 -44
-1 0 29 28 83 49 94 41 23 99 30 211 27 75 -1 125 -7 145 -17z m-745 -774 c6
-8 10 -20 8 -26 -4 -11 -191 -67 -228 -68 -8 -1 26 24 75 54 94 56 124 65 145
40z m295 -107 c-10 -132 -18 -157 -80 -233 -31 -37 -60 -76 -66 -87 -10 -18
-12 -18 -29 -3 -17 15 -19 13 -49 -37 -17 -29 -46 -75 -63 -102 -22 -35 -33
-65 -36 -102 -4 -49 -2 -56 27 -85 26 -26 37 -30 61 -25 l30 6 0 -210 0 -209
-37 -10 c-130 -32 -144 -34 -160 -18 -13 12 -14 21 -4 48 23 65 6 151 -39 199
-24 25 -33 65 -99 398 -59 296 -71 374 -62 390 13 24 -2 20 341 102 140 34
257 64 259 66 11 11 12 -3 6 -88z m-529 40 c4 -7 3 -8 -5 -4 -8 6 -10 1 -6
-17 6 -22 3 -26 -23 -32 -17 -3 -38 -15 -47 -26 -14 -14 -21 -16 -32 -8 -11
10 -8 17 19 40 17 16 36 29 41 29 4 0 15 7 23 15 18 18 21 18 30 3z m1657 -61
c125 -36 181 -57 188 -69 7 -14 -6 -68 -51 -211 -34 -105 -66 -206 -71 -223
-5 -17 -51 -87 -102 -155 -74 -100 -96 -124 -113 -121 -32 5 -57 -25 -51 -62
3 -21 -2 -41 -15 -62 l-21 -31 -68 21 -69 21 0 37 c0 27 5 40 20 48 26 14 27
64 1 82 -18 13 -20 28 -22 174 l-2 159 41 130 c22 72 52 169 66 217 26 87 46
113 76 102 8 -3 95 -29 193 -57z m-1786 -94 c1 -48 109 -613 129 -677 5 -16 3
-18 -12 -11 -11 4 -38 9 -61 10 -48 3 -27 -29 -191 285 -45 85 -94 178 -109
207 -42 77 -33 89 117 173 69 38 125 69 125 69 0 1 1 -25 2 -56z m510 -261
c-21 -39 -26 -70 -27 -177 -1 -45 -5 -87 -10 -95 -7 -10 -10 -11 -10 -2 0 6
-12 12 -27 12 -80 1 -87 79 -18 186 40 62 74 96 87 88 5 -3 7 -8 5 -12z m1628
-240 c118 -84 151 -113 152 -132 2 -19 -40 -83 -170 -258 -96 -127 -176 -235
-180 -238 -3 -3 -14 -3 -25 0 -17 6 -19 10 -9 35 18 50 -8 80 -58 67 -18 -5
-27 -15 -32 -37 -4 -21 -10 -28 -22 -25 -187 53 -198 54 -307 10 -36 -14 -67
-24 -69 -22 -2 2 13 26 34 53 21 28 132 176 246 330 238 321 241 325 270 325
11 0 88 -48 170 -108z m-1495 -168 c67 -12 157 -17 307 -17 157 0 215 -3 223
-12 7 -8 9 -115 8 -305 l-3 -293 -28 -21 c-27 -20 -40 -21 -235 -20 -207 1
-312 14 -381 47 l-26 12 -3 319 -2 318 22 -6 c13 -3 66 -13 118 -22z m417 18
c-3 -4 -22 -9 -42 -10 -20 -2 -34 1 -32 6 3 4 22 9 42 10 20 2 34 -1 32 -6z
m-937 -97 c53 -27 90 -87 90 -144 0 -15 -11 -50 -25 -77 -24 -47 -24 -51 -10
-99 19 -67 61 -130 125 -190 116 -108 129 -122 136 -149 15 -63 -51 -118 -189
-157 -115 -33 -292 -34 -334 -3 -47 35 -44 83 16 195 54 104 60 124 62 219 2
105 2 107 -36 129 -96 57 -102 207 -10 267 51 33 120 36 175 9z m95 -264 c-2
-4 11 -16 28 -28 l32 -22 80 19 c44 11 83 19 88 20 4 0 7 -58 7 -130 0 -104 3
-130 14 -130 27 0 36 -24 22 -64 l-13 -38 -31 30 c-20 20 -27 32 -19 36 7 3
-1 16 -23 33 -85 68 -118 106 -155 177 -22 42 -43 76 -47 76 -5 0 -8 6 -8 13
0 8 7 14 15 14 8 0 12 -3 10 -6z m1540 -120 c138 -37 164 -46 154 -55 -12 -11
-202 -86 -216 -86 -10 0 -85 22 -168 49 -169 54 -167 46 -20 100 44 17 85 30
92 30 6 1 78 -17 158 -38z m237 -13 c-22 -35 -47 -44 -56 -21 -3 7 -2 12 3 9
5 -3 12 1 15 10 3 9 13 14 20 11 8 -3 17 1 20 9 3 8 8 14 12 14 3 0 -3 -14
-14 -32z m-484 -115 c80 -27 148 -55 152 -64 8 -15 -5 -341 -15 -386 -3 -13
-11 -23 -18 -23 -30 1 -293 101 -304 117 -7 9 -13 35 -13 57 0 72 20 327 26
337 8 14 20 12 172 -38z m444 20 c7 -29 -12 -336 -22 -360 -11 -27 -220 -137
-234 -123 -5 5 -4 85 3 202 10 158 15 196 29 209 9 9 51 28 92 43 42 15 82 31
90 36 23 15 37 12 42 -7z"/>
<path d="M706 2818 c-2 -7 -7 -48 -9 -90 -5 -72 -4 -78 14 -78 12 0 19 7 19
19 0 25 31 37 42 16 11 -18 38 -20 38 -2 0 19 -73 140 -87 145 -7 2 -15 -2
-17 -10z m44 -85 c0 -7 -7 -13 -15 -13 -10 0 -15 10 -15 33 1 30 1 31 15 13 8
-11 15 -26 15 -33z"/>
<path d="M740 2608 c-26 -43 -23 -73 8 -72 15 0 21 -4 18 -13 -3 -8 2 -13 14
-13 13 0 18 5 14 15 -4 10 0 15 10 15 40 0 22 65 -24 90 -17 9 -23 6 -40 -22z"/>
<path d="M2168 2889 c-10 -5 -23 -19 -29 -30 -14 -28 13 -69 46 -69 52 0 75
65 33 94 -26 19 -27 19 -50 5z"/>
<path d="M2232 2714 c-24 -17 -30 -62 -10 -82 30 -30 88 -2 88 43 0 20 -32 55
-50 55 -3 0 -16 -7 -28 -16z"/>
<path d="M2306 2544 c-20 -19 -20 -34 0 -62 21 -30 59 -29 80 3 15 23 15 27 0
50 -19 29 -56 33 -80 9z"/>
<path d="M2010 2490 c0 -14 11 -22 43 -30 23 -6 98 -29 166 -51 68 -21 129
-39 137 -39 17 0 29 19 18 30 -11 11 -323 110 -346 110 -11 0 -18 -8 -18 -20z"/>
<path d="M2016 2397 c-22 -16 -18 -65 5 -80 47 -29 101 32 64 73 -21 23 -44
25 -69 7z"/>
<path d="M2232 2328 c-7 -7 -12 -24 -12 -38 0 -53 57 -69 86 -25 15 23 15 27
0 50 -18 27 -54 33 -74 13z"/>
<path d="M2088 2249 c-22 -12 -24 -62 -4 -78 46 -38 111 25 71 69 -20 22 -41
25 -67 9z"/>
<path d="M404 2686 c-3 -8 2 -49 12 -91 14 -58 22 -75 33 -73 10 2 15 12 13
25 -4 26 22 37 48 21 14 -9 22 -10 31 -1 8 8 -1 22 -33 52 -81 74 -97 85 -104
67z m54 -58 c15 -15 16 -41 0 -36 -13 5 -31 48 -20 48 5 0 13 -5 20 -12z"/>
<path d="M2518 2329 c-21 -12 -24 -59 -6 -77 19 -19 66 -15 78 7 29 54 -20
101 -72 70z"/>
<path d="M2426 2201 c-24 -26 -17 -62 16 -80 24 -14 28 -14 47 3 27 24 28 72
2 86 -29 15 -46 12 -65 -9z"/>
<path d="M2697 2192 c-24 -27 -21 -59 8 -78 23 -15 27 -15 50 0 46 30 26 96
-28 96 -8 0 -21 -8 -30 -18z"/>
<path d="M2341 2086 c-38 -46 25 -111 69 -71 25 23 26 47 2 68 -23 21 -56 22
-71 3z"/>
<path d="M2605 2070 c-24 -27 -13 -68 22 -76 33 -9 57 6 61 38 6 50 -49 76
-83 38z"/>
<path d="M2246 2012 c-9 -15 13 -35 153 -136 123 -90 162 -108 161 -74 -1 14
-261 207 -289 215 -10 3 -21 1 -25 -5z"/>
<path d="M2522 1958 c-33 -33 6 -96 52 -84 29 7 45 49 29 75 -13 20 -64 26
-81 9z"/>
<path d="M2206 1914 c-32 -31 -8 -84 38 -84 29 0 46 18 46 50 0 14 -5 31 -12
38 -17 17 -54 15 -72 -4z"/>
<path d="M1153 2020 c0 -47 2 -66 4 -42 2 23 2 61 0 85 -2 23 -4 4 -4 -43z"/>
<path d="M1153 1720 c0 -41 2 -58 4 -37 2 20 2 54 0 75 -2 20 -4 3 -4 -38z"/>
<path d="M697 1867 c-8 -12 -31 -31 -51 -42 -37 -20 -48 -45 -20 -45 8 0 29
-13 45 -29 16 -16 29 -26 29 -22 0 11 -51 61 -61 61 -5 0 -9 5 -9 12 0 6 3 9
6 5 7 -7 62 41 75 66 14 25 4 21 -14 -6z"/>
<path d="M721 1652 c-1 -18 28 -80 41 -88 5 -3 1 11 -10 32 -11 22 -22 46 -25
54 -4 11 -6 11 -6 2z"/>
<path d="M797 1515 c36 -46 93 -102 93 -91 0 4 -10 17 -23 30 -13 13 -32 34
-43 47 -10 13 -28 31 -39 39 -11 9 -6 -2 12 -25z"/>
<path d="M863 1371 c-12 -10 -53 -26 -90 -36 -116 -28 -135 -35 -83 -29 67 8
165 42 185 64 23 25 17 25 -12 1z"/>
<path d="M2164 1648 c-4 -6 1 -17 11 -25 38 -27 109 -7 84 24 -14 16 -85 17
-95 1z"/>
<path d="M1952 1508 c-7 -7 -12 -24 -12 -38 0 -14 5 -31 12 -38 17 -17 55 -15
62 4 16 42 -1 84 -34 84 -9 0 -21 -5 -28 -12z"/>
<path d="M2122 1448 c-20 -20 -14 -56 14 -74 24 -16 26 -16 47 5 20 20 21 23
7 49 -17 30 -49 39 -68 20z"/>
<path d="M2021 1358 c-9 -26 4 -64 25 -72 39 -15 65 31 40 69 -21 31 -54 32
-65 3z"/>
<path d="M1936 1294 c-20 -19 -20 -34 0 -62 17 -24 43 -29 62 -10 18 18 15 45
-8 68 -24 24 -34 25 -54 4z"/>
<path d="M2100 1230 c-23 -43 20 -92 60 -70 23 12 27 59 8 78 -19 19 -56 14
-68 -8z"/>
<path d="M2430 1480 c-17 -32 -9 -75 15 -75 27 0 54 49 39 72 -16 26 -41 27
-54 3z"/>
<path d="M2372 1358 c-17 -17 -15 -75 3 -82 18 -7 45 19 45 44 0 45 -23 63
-48 38z"/>
<path d="M2311 1236 c-17 -21 -10 -70 11 -74 22 -4 49 38 41 66 -6 25 -35 29
-52 8z"/>
<path d="M1391 3128 c-12 -194 -28 -366 -34 -383 -6 -16 -44 -65 -85 -107
-101 -107 -115 -142 -120 -297 -3 -88 -1 -122 7 -117 6 4 11 38 11 83 0 68 2
74 16 62 45 -37 100 -4 111 67 3 21 14 50 23 64 30 44 30 68 3 100 l-25 30 35
41 c50 58 62 116 72 344 2 66 10 193 16 283 7 101 8 167 2 173 -6 6 -18 -125
-32 -343z m-71 -548 c8 -16 5 -27 -14 -57 -14 -21 -28 -58 -32 -83 -8 -52 -19
-70 -45 -70 -35 0 -43 36 -24 107 26 96 88 153 115 103z"/>
<path d="M1181 3323 c-38 -7 -174 -59 -233 -89 -114 -57 -329 -217 -313 -232
3 -3 25 13 48 36 24 23 48 42 55 42 7 0 15 7 18 15 4 8 9 13 13 10 4 -2 14 5
21 16 8 10 20 19 27 19 7 0 13 5 13 10 0 6 5 10 12 10 6 0 32 13 57 29 57 36
164 82 259 111 87 27 97 37 23 23z"/>
<path d="M1800 3302 c19 -8 37 -16 40 -17 3 -1 16 -6 30 -12 14 -6 42 -18 63
-26 20 -9 37 -13 37 -9 0 4 4 2 8 -3 4 -6 18 -16 32 -22 59 -29 109 -61 105
-67 -3 -3 -2 -4 1 -1 4 2 26 -11 49 -30 23 -19 45 -35 49 -35 4 0 25 -18 48
-40 23 -22 44 -37 47 -35 6 6 -39 46 -139 123 -85 65 -201 128 -308 166 -80
29 -117 34 -62 8z"/>
<path d="M1765 2930 c3 -90 16 -153 37 -175 5 -5 4 4 -3 20 -6 17 -17 80 -25
140 l-12 110 3 -95z"/>
<path d="M1810 2737 c0 -4 15 -25 34 -45 19 -20 44 -48 56 -62 17 -21 19 -21
11 -4 -12 25 -100 122 -101 111z"/>
<path d="M2600 2579 c0 -18 43 -139 48 -134 5 5 -37 145 -43 145 -3 0 -5 -5
-5 -11z"/>
<path d="M300 2371 c-24 -187 0 -403 62 -566 31 -79 108 -228 115 -221 2 2
-14 39 -35 82 -46 90 -82 172 -86 194 -1 8 -8 33 -14 55 -38 135 -47 302 -27
488 5 37 5 67 3 67 -3 0 -11 -45 -18 -99z"/>
<path d="M1964 1886 c2 -63 16 -70 16 -8 0 29 -4 52 -9 52 -5 0 -8 -20 -7 -44z"/>
<path d="M1150 1305 c0 -153 11 -190 58 -201 15 -4 34 -12 42 -17 8 -6 -6 10
-32 36 l-48 47 -1 117 c-1 65 -1 123 0 130 1 6 -3 14 -9 18 -7 4 -10 -39 -10
-130z"/>
<path d="M1794 1335 c0 -55 1 -76 3 -47 2 29 2 74 0 100 -2 26 -3 2 -3 -53z"/>
<path d="M850 1185 c0 -7 161 -87 166 -82 4 3 -151 87 -161 87 -3 0 -5 -2 -5
-5z"/>
<path d="M1453 1033 c26 -2 68 -2 95 0 26 2 4 3 -48 3 -52 0 -74 -1 -47 -3z"/>
</g>
</svg>
