<?xml version="1.0" standalone="no"?>
<!DOCTYPE svg PUBLIC "-//W3C//DTD SVG 20010904//EN"
 "http://www.w3.org/TR/2001/REC-SVG-20010904/DTD/svg10.dtd">
<svg version="1.0" xmlns="http://www.w3.org/2000/svg"
 width="300.000000pt" height="450.000000pt" viewBox="0 0 300.000000 450.000000"
 preserveAspectRatio="xMidYMid meet">
<metadata>
Created by potrace 1.10, written by Peter Selinger 2001-2011
</metadata>
<g transform="translate(0.000000,450.000000) scale(0.050000,-0.050000)"
fill="#000000" stroke="none">
<path d="M2648 7325 c-263 -94 -405 -377 -296 -589 54 -104 57 -400 10 -856
-24 -225 -45 -466 -47 -535 -3 -69 -11 -125 -18 -125 -7 0 -18 -23 -25 -51 -7
-28 -54 -106 -105 -175 -116 -157 -209 -341 -211 -416 -1 -32 -9 -58 -18 -58
-9 0 -16 -610 -16 -1355 l1 -1355 47 -103 c134 -298 404 -407 1010 -407 486 0
746 66 905 231 140 145 137 98 131 1681 l-6 1418 -66 133 c-36 73 -86 155
-112 183 -26 29 -43 57 -37 63 7 6 2 11 -10 11 -36 0 -127 208 -136 313 -8
100 -30 319 -41 407 -36 307 -31 896 9 974 109 215 14 478 -212 588 -134 64
-600 78 -757 23z m-39 -196 c-117 -58 -167 -226 -97 -326 31 -45 31 -46 -14
-40 -137 20 -8 398 135 397 26 -1 18 -10 -24 -31z m852 -24 c117 -105 142
-345 35 -345 -38 0 -38 1 1 56 60 84 40 176 -57 269 -90 86 -72 103 21 20z
m-109 -38 c67 -31 108 -99 108 -179 0 -60 -57 -88 -83 -41 -26 46 -77 41 -77
-7 0 -60 -131 -58 -146 2 -13 50 -56 42 -82 -15 -27 -60 -147 -62 -156 -3 -8
58 -56 70 -70 18 -15 -60 -146 -62 -146 -2 0 27 -13 40 -40 40 -22 0 -40 -13
-40 -30 0 -16 -14 -30 -31 -30 -82 0 -45 196 46 240 123 61 591 65 717 7z
m-769 -512 c16 -40 16 -98 -1 -210 -12 -85 -41 -357 -64 -605 -56 -615 -57
-617 -195 -808 -219 -302 -249 -406 -239 -830 4 -205 -1 -287 -19 -305 -20
-20 -24 46 -19 334 7 470 19 506 292 857 l87 113 27 274 c15 151 41 415 58
585 51 516 53 556 31 569 -24 15 -28 131 -6 184 11 28 16 20 21 -33 3 -38 15
-95 27 -125z m897 61 c0 -40 -9 -79 -19 -85 -10 -7 -15 -41 -11 -76 8 -58 19
-185 39 -435 27 -342 34 -416 41 -460 5 -27 14 -126 21 -220 14 -194 53 -294
159 -410 236 -260 232 -226 226 -1812 -6 -1302 -7 -1350 -46 -1413 -220 -365
-1582 -353 -1799 15 -48 81 -76 903 -32 947 24 24 23 41 28 -477 3 -339 6
-364 48 -423 48 -67 208 -168 263 -166 21 1 17 7 -13 20 -25 10 -45 23 -45 30
0 6 20 5 45 -4 25 -9 108 -17 185 -18 77 -2 185 -4 240 -6 55 -1 114 -3 130
-3 17 0 71 -4 120 -8 50 -4 99 -2 110 5 11 7 56 14 100 16 154 7 380 158 367
245 -3 17 6 52 19 76 16 28 17 48 4 56 -13 8 -13 25 1 51 15 28 14 39 -3 39
-17 0 -17 7 0 27 17 21 15 34 -8 53 -31 26 -43 70 -13 52 26 -16 9 147 -18
180 -13 15 -36 28 -51 28 -35 0 -34 17 2 80 42 73 43 1224 2 1304 -24 46 -24
55 1 64 19 8 24 3 14 -13 -9 -14 6 -11 34 7 27 18 49 45 49 60 0 16 11 47 24
70 14 24 19 48 13 55 -7 6 -10 102 -8 214 2 141 -5 212 -23 234 -14 17 -24 34
-21 38 9 15 -21 129 -38 139 -10 6 -12 21 -4 32 8 13 4 16 -10 8 -14 -9 -32 6
-46 37 -13 28 -63 94 -110 146 -48 52 -87 109 -87 126 0 18 -6 38 -13 46 -19
18 -29 98 -36 273 -3 83 -7 150 -9 150 -2 0 -6 68 -8 150 -2 83 -10 159 -17
170 -6 11 -12 88 -13 170 0 83 -6 164 -13 182 -7 17 -9 54 -4 81 5 29 -6 69
-29 98 l-37 49 0 -80 c0 -225 78 -1268 98 -1319 13 -33 73 -112 133 -175 177
-185 198 -250 198 -606 l0 -300 -280 -10 c-305 -11 -848 6 -934 29 -56 15 -56
17 20 102 15 16 21 37 15 48 -7 10 6 29 29 41 23 12 36 30 30 40 -6 10 15 32
48 49 33 17 65 49 72 71 7 22 22 40 33 40 10 0 14 9 7 20 -7 11 -2 20 10 20
13 0 19 11 14 25 -5 14 5 41 22 60 26 31 38 91 44 225 1 22 -8 43 -19 46 -31
11 -26 55 9 84 17 14 30 42 30 62 0 21 14 38 31 38 17 0 26 8 20 19 -6 10 -2
24 9 31 11 7 16 21 10 31 -6 9 2 49 18 88 22 52 24 71 6 71 -16 1 -15 7 4 18
17 11 24 38 18 70 -6 29 -2 52 8 52 10 0 13 9 6 20 -6 10 -2 37 10 60 16 29
15 40 -2 40 -16 0 -17 8 -3 25 11 14 16 43 11 65 -15 67 -5 180 16 187 12 4
11 18 -4 35 -19 24 -17 26 11 15 31 -11 33 -8 12 32 -13 24 -19 58 -12 76 7
17 1 39 -13 48 -18 12 -19 22 -5 32 12 8 20 48 19 89 -2 45 4 69 16 62 13 -8
14 -2 2 16 -9 15 -18 64 -20 108 -2 94 -35 181 -72 196 -14 6 42 12 124 14 83
2 173 7 200 11 191 31 191 31 151 53 -35 20 -35 23 11 59 l48 38 -60 -24 c-84
-33 -605 -32 -666 1 -52 28 -59 157 -7 146 14 -3 127 -11 250 -17 232 -13 273
-26 273 -89 0 -21 10 -38 21 -38 13 0 16 17 9 40 -8 24 -4 40 10 40 12 0 17 8
11 18 -13 22 35 42 101 42 38 0 49 -11 51 -55 2 -54 3 -54 12 -5 23 129 84
112 85 -24z m-663 -188 c7 -5 -62 -1024 -86 -1272 -12 -130 -57 -207 -200
-346 -191 -186 -221 -264 -221 -584 l0 -264 -50 12 c-123 29 -121 25 -108 292
15 291 58 409 221 609 147 179 158 224 217 855 73 795 59 729 147 716 40 -7
76 -14 80 -18z m-185 -1736 c6 -16 -5 -58 -24 -95 -19 -37 -49 -116 -68 -177
-41 -140 -144 -168 -157 -42 -17 184 196 453 249 314z m-292 -845 c85 -20 301
-35 630 -44 l500 -13 5 -604 6 -605 -55 -35 c-121 -80 -1025 -39 -1232 56
l-44 20 0 639 c0 560 4 638 30 628 17 -7 89 -26 160 -42z m-103 -1369 l63 -22
0 -289 c0 -316 28 -387 152 -387 25 0 56 -16 68 -35 18 -28 20 -21 11 35 -6
39 -27 81 -45 95 -19 14 -26 25 -18 25 9 0 2 23 -17 51 -22 33 -31 84 -28 150
2 54 -2 105 -9 112 -8 8 1 31 20 52 28 30 29 37 5 31 -19 -4 -29 10 -29 41 -1
26 -19 61 -40 77 -39 30 -38 30 10 20 255 -58 901 -60 1064 -4 119 40 136 6
136 -278 0 -257 -16 -312 -119 -398 -197 -166 -1201 -101 -1300 83 -25 48 -29
663 -4 663 9 0 45 -10 80 -22z"/>
<path d="M2840 6610 c0 -27 9 -50 20 -50 11 0 20 8 20 18 0 10 5 33 12 50 8
21 1 32 -20 32 -21 0 -32 -17 -32 -50z"/>
<path d="M3443 5410 c-7 -219 52 -390 191 -552 51 -60 113 -153 139 -208 26
-55 47 -86 47 -70 0 44 -106 218 -187 307 -100 110 -131 187 -162 398 -15 102
-27 158 -28 125z"/>
<path d="M2680 1549 c66 -15 336 -19 327 -4 -5 8 -88 14 -183 13 -96 -2 -160
-6 -144 -9z"/>
<path d="M3215 1546 c36 -5 90 -5 120 0 30 4 1 8 -65 8 -66 0 -91 -4 -55 -8z"/>
<path d="M2314 2947 c-15 -25 -9 -167 8 -167 23 0 42 144 22 164 -11 11 -24
12 -30 3z"/>
</g>
</svg>
